<svg xmlns="http://www.w3.org/2000/svg" viewBox="0 0 1600 741.5"><defs><style>.a{fill:#fff;}</style></defs><title>divider-bottom</title><polygon class="a" points="1464.8 0 1427.7 19.6 1449.2 60.3 1412 79.9 1429.8 113.5 1355.5 152.8 1303.8 54.9 1250.4 83.1 1287.8 153.9 1213.5 193.2 1164.2 99.8 1135.5 114.9 1156.3 154.3 1105 181.3 1161.1 287.4 1086.8 326.7 1056.4 269.2 1009.6 294 1066.6 401.9 992.3 441.1 930.6 324.4 903.2 338.9 828 196.5 805 208.7 863 318.3 788.7 357.5 748 280.6 699.2 306.4 722.5 350.4 648.2 389.6 590.4 280.2 542.3 305.6 598.2 411.3 561 430.9 578.8 464.5 504.5 503.8 460.8 420.9 390.4 458.1 344.1 370.5 299.9 393.9 360.6 508.9 286.4 548.1 270 517.2 229.7 538.5 245.3 567.9 171 607.2 116.8 504.6 101.8 512.5 142 588.6 67.7 627.8 16.8 531.5 0 540.3 0 741.5 1600 741.5 1600 157 1559.2 178.6 1464.8 0"/></svg>