<svg xmlns="http://www.w3.org/2000/svg" viewBox="0 0 272 112"><defs><style>.a{fill:#fff;}</style></defs><title>title</title><path class="a" d="M173.7,66.1c-1.7,0-2.9.8-4.3,2.2v4.5c5.4-.7,7.3-2.2,7.3-4.2S175.4,66.1,173.7,66.1Z"/><path class="a" d="M184.7,31.5c-2.4,0-4.4,1.7-4.9,5H189C189,33.5,187.6,31.5,184.7,31.5Z"/><path class="a" d="M87.7,80.5c2.4,0,4.4-1.7,4.9-5H83.5C83.5,78.6,84.9,80.5,87.7,80.5Z"/><path class="a" d="M194.8,80.5c2.4,0,4.4-1.7,4.9-5h-9.1C190.6,78.6,191.9,80.5,194.8,80.5Z"/><path class="a" d="M98.8,45.9c1.7,0,2.9-.8,4.3-2.2V39.2c-5.4.7-7.3,2.2-7.3,4.2S97.1,45.9,98.8,45.9Z"/><path class="a" d="M64.9,80.5c2.4,0,4.4-1.7,4.9-5H60.7C60.7,78.6,62,80.5,64.9,80.5Z"/><path class="a" d="M77.7,31.5c-2.4,0-4.4,1.7-4.9,5h9.1C81.9,33.5,80.5,31.5,77.7,31.5Z"/><path class="a" d="M6,6V106H266V6ZM99.3,31.7a12.7,12.7,0,0,0-6.2,2.1l-2.1-3.9a17.9,17.9,0,0,1,9.4-3c5.7,0,8.6,3.4,8.6,9.9V49.9h-4.8l-.4-2.4h-.1a10.5,10.5,0,0,1-6.8,3,6.4,6.4,0,0,1-6.6-6.6c0-4.8,3.9-7.3,12.9-8.3C103.1,33.4,102.1,31.7,99.3,31.7ZM16.5,35.3c0-9.8,6.3-15.5,13.8-15.5a12.1,12.1,0,0,1,8.7,3.8l-3.1,3.8a7.6,7.6,0,0,0-5.4-2.5c-4.5,0-7.8,3.8-7.8,10.2s3,10.3,7.7,10.3a8.2,8.2,0,0,0,6.1-2.9l3.1,3.7A12,12,0,0,1,30,50.5C22.5,50.5,16.5,45.1,16.5,35.3Zm37,48.9-3.4.3-.7,6H44.5v-6H38.9V79.8h5.5V69.9c0-2.6-1-3.8-3-3.8a6.5,6.5,0,0,0-2.2.5l-1-4.3a14.5,14.5,0,0,1,4.7-.8c5.3,0,7.4,3.4,7.4,8.4v9.9h3.2ZM49.2,34.5V49.9H43.3V18h5.8v8l-.2,4.2c1.8-1.7,4-3.3,7-3.3,4.8,0,6.9,3.4,6.9,9v14H57V36.7c0-3.4-1-4.7-3.2-4.7S50.9,32.9,49.2,34.5ZM65,85c-6.2,0-9.4-4.5-9.4-10.7a10.9,10.9,0,0,1,.3-2.7H69.7C69.2,68,66.8,66,63.5,66a9.2,9.2,0,0,0-5,1.6l-2-3.6a14.1,14.1,0,0,1,7.8-2.5c6.2,0,11.1,4.4,11.1,11.7S70.3,85,65,85Zm2.2-46.2c0-7.3,5.1-11.8,10.4-11.8s9.4,4.5,9.4,10.7a11,11,0,0,1-.3,2.7H72.9c.5,3.7,2.9,5.6,6.2,5.6a9.2,9.2,0,0,0,5-1.6l2,3.6a14.1,14.1,0,0,1-7.8,2.5C72,50.5,67.1,46.1,67.1,38.8ZM87.8,85c-6.2,0-9.4-4.5-9.4-10.7a10.9,10.9,0,0,1,.3-2.7H92.5C92.1,68,89.7,66,86.3,66a9.2,9.2,0,0,0-5,1.6l-2-3.6a14.1,14.1,0,0,1,7.8-2.5c6.2,0,11.1,4.4,11.1,11.7S93.2,85,87.8,85Zm34.2,9h-5.8V86l.2-4.2c-1.8,1.7-4,3.3-7,3.3-4.8,0-6.9-3.4-6.9-9v-14h5.9V75.3c0,3.4,1,4.7,3.2,4.7s3-.9,4.7-2.5V62.1h5.8Zm-6.6-51.9V32.2h-3.2V27.8l3.4-.3.7-6h4.9v6h5.5v4.6h-5.5v9.9c0,2.6,1,3.8,3,3.8a6.5,6.5,0,0,0,2.2-.5l1,4.3a14.5,14.5,0,0,1-4.7.8C117.5,50.5,115.5,47.1,115.5,42.1Zm20.9,29.5c2.8,1.1,6.1,2.8,6.1,6.5s-3.3,6.9-8.3,6.9a12.5,12.5,0,0,1-7.6-2.8l2.6-3.6a8.6,8.6,0,0,0,4.8,1.9c2,0,3-.9,3-2.2s-2.2-2.2-4.6-3.1-6.2-2.6-6.2-6.8,3.1-7.1,8.9-7.1a14.1,14.1,0,0,1,8.5,3.2l-2.7,3.7a9.7,9.7,0,0,0-6-2.4c-2.2,0-3.2,1-3.2,2.4S134,70.7,136.3,71.6Zm1.1-21.1a14.1,14.1,0,0,1-8.5-3.2l2.7-3.7a9.7,9.7,0,0,0,6,2.4c2.2,0,3.2-1,3.2-2.4s-2.3-2.4-4.7-3.4-6.1-2.8-6.1-6.5,3.3-6.9,8.3-6.9a12.5,12.5,0,0,1,7.6,2.8l-2.6,3.6a8.6,8.6,0,0,0-4.8-1.9c-2,0-3,.9-3,2.2s2.2,2.2,4.6,3.1,6.2,2.6,6.2,6.8S143.3,50.5,137.4,50.5Zm22.8,33.7-3.4.3-.7,6h-4.9v-6h-5.5V79.8h5.5V69.9c0-2.6-1-3.8-3-3.8a6.5,6.5,0,0,0-2.2.5l-1-4.3a14.5,14.5,0,0,1,4.7-.8c5.3,0,7.4,3.4,7.4,8.4v9.9h3.2Zm.8-52.2c-1.8,0-3,.9-4.7,2.5V49.9h-5.8V18h5.8v8l-.2,4.2c1.8-1.7,4-3.3,7-3.3,4.8,0,6.9,3.4,6.9,9v14h-5.9V36.7C164.1,33.3,163.1,32,160.9,32Zm12.2,48.3a12.7,12.7,0,0,0,6.2-2.1l2.1,3.9a17.9,17.9,0,0,1-9.4,3c-5.7,0-8.6-3.4-8.6-9.9V62.1h4.8l.4,2.4h.1a10.5,10.5,0,0,1,6.8-3,6.4,6.4,0,0,1,6.6,6.6c0,4.8-3.9,7.3-12.9,8.3C169.4,78.6,170.4,80.3,173.1,80.3Zm1.1-41.5c0-7.3,5.1-11.8,10.4-11.8s9.4,4.5,9.4,10.7a10.9,10.9,0,0,1-.3,2.7H179.9c.5,3.7,2.9,5.6,6.2,5.6a9.2,9.2,0,0,0,5-1.6l2,3.6a14.1,14.1,0,0,1-7.8,2.5C179.1,50.5,174.2,46.1,174.2,38.8ZM194.9,85c-6.2,0-9.4-4.5-9.4-10.7a11,11,0,0,1,.3-2.7h13.8c-.5-3.7-2.9-5.6-6.2-5.6a9.2,9.2,0,0,0-5,1.6l-2-3.6a14.1,14.1,0,0,1,7.8-2.5c6.2,0,11.1,4.4,11.1,11.7S200.3,85,194.9,85Zm2.2-46.2c0-7.3,5.1-11.8,10.4-11.8s9.4,4.5,9.4,10.7a10.9,10.9,0,0,1-.3,2.7H202.8c.5,3.7,2.9,5.6,6.2,5.6a9.2,9.2,0,0,0,5-1.6l2,3.6a14.1,14.1,0,0,1-7.8,2.5C201.9,50.5,197.1,46.1,197.1,38.8ZM229.1,94h-5.8V86l.2-4.2c-1.8,1.7-4,3.3-7,3.3-4.8,0-6.9-3.4-6.9-9v-14h5.9V75.3c0,3.4,1,4.7,3.2,4.7s3-.9,4.7-2.5V62.1h5.8Zm-7-51.9V32.2H219V27.8l3.4-.3.7-6H228v6h5.5v4.6H228v9.9c0,2.6,1,3.8,3,3.8a6.5,6.5,0,0,0,2.2-.5l1,4.3a14.5,14.5,0,0,1-4.7.8C224.2,50.5,222.1,47.1,222.1,42.1Zm20.1,50.1a12.1,12.1,0,0,1-8.7-3.8l3.1-3.8a7.6,7.6,0,0,0,5.4,2.5c4.5,0,7.8-3.8,7.8-10.2s-3-10.3-7.7-10.3a8.2,8.2,0,0,0-6.1,2.9L233,65.9a12,12,0,0,1,9.4-4.4c7.5,0,13.6,5.4,13.6,15.2S249.7,92.2,242.3,92.2Z"/><path class="a" d="M207.6,31.5c-2.4,0-4.4,1.7-4.9,5h9.1C211.8,33.5,210.5,31.5,207.6,31.5Z"/></svg>